<?xml version="1.0" encoding="UTF-8" standalone="no"?>
<!DOCTYPE svg PUBLIC "-//W3C//DTD SVG 1.1//EN" "http://www.w3.org/Graphics/SVG/1.1/DTD/svg11.dtd">
<svg width="100%" height="100%" viewBox="0 0 29 28" version="1.1" xmlns="http://www.w3.org/2000/svg" xmlns:xlink="http://www.w3.org/1999/xlink" xml:space="preserve" xmlns:serif="http://www.serif.com/" style="fill-rule:evenodd;clip-rule:evenodd;stroke-linejoin:round;stroke-miterlimit:2;">
    <g>
        <g>
            <path d="M14.5,0C22.232,0 28.5,6.268 28.5,14C28.5,21.732 22.232,28 14.5,28C6.768,28 0.5,21.732 0.5,14C0.5,6.268 6.768,0 14.5,0ZM14.5,5.185C12.106,5.185 11.806,5.195 10.866,5.238C9.927,5.281 9.287,5.43 8.726,5.648C8.146,5.873 7.655,6.175 7.165,6.665C6.675,7.155 6.373,7.646 6.148,8.226C5.93,8.787 5.781,9.427 5.738,10.366C5.695,11.306 5.685,11.606 5.685,14C5.685,16.394 5.695,16.694 5.738,17.634C5.781,18.573 5.93,19.213 6.148,19.774C6.373,20.354 6.675,20.845 7.165,21.335C7.655,21.825 8.146,22.127 8.726,22.352C9.287,22.57 9.927,22.719 10.866,22.762C11.806,22.805 12.106,22.815 14.5,22.815C16.894,22.815 17.194,22.805 18.134,22.762C19.073,22.719 19.713,22.57 20.274,22.352C20.854,22.127 21.345,21.825 21.835,21.335C22.325,20.845 22.627,20.354 22.852,19.774C23.07,19.213 23.219,18.573 23.262,17.634C23.305,16.694 23.315,16.394 23.315,14C23.315,11.606 23.305,11.306 23.262,10.366C23.219,9.427 23.07,8.787 22.852,8.226C22.627,7.646 22.325,7.155 21.835,6.665C21.345,6.175 20.854,5.873 20.274,5.648C19.713,5.43 19.073,5.281 18.134,5.238C17.194,5.195 16.894,5.185 14.5,5.185ZM14.5,6.774C16.854,6.774 17.132,6.782 18.062,6.825C18.921,6.864 19.388,7.008 19.699,7.128C20.11,7.288 20.404,7.479 20.712,7.788C21.021,8.096 21.212,8.39 21.372,8.801C21.492,9.112 21.636,9.578 21.675,10.438C21.718,11.368 21.726,11.646 21.726,14C21.726,16.354 21.718,16.632 21.675,17.562C21.636,18.421 21.492,18.888 21.372,19.199C21.212,19.61 21.021,19.904 20.712,20.212C20.404,20.521 20.11,20.712 19.699,20.872C19.388,20.992 18.921,21.136 18.062,21.175C17.132,21.218 16.854,21.226 14.5,21.226C12.146,21.226 11.867,21.218 10.938,21.175C10.079,21.136 9.612,20.992 9.301,20.872C8.89,20.712 8.596,20.521 8.288,20.212C7.979,19.904 7.788,19.61 7.628,19.199C7.508,18.888 7.364,18.421 7.325,17.562C7.282,16.632 7.274,16.354 7.274,14C7.274,11.646 7.282,11.368 7.325,10.438C7.364,9.578 7.508,9.112 7.628,8.801C7.788,8.39 7.979,8.096 8.288,7.788C8.596,7.479 8.89,7.288 9.301,7.128C9.612,7.008 10.079,6.864 10.938,6.825C11.868,6.782 12.146,6.774 14.5,6.774ZM14.5,9.474C12,9.474 9.974,11.5 9.974,14C9.974,16.5 12,18.526 14.5,18.526C17,18.526 19.026,16.5 19.026,14C19.026,11.5 17,9.474 14.5,9.474ZM14.5,16.938C12.877,16.938 11.562,15.623 11.562,14C11.562,12.377 12.877,11.062 14.5,11.062C16.123,11.062 17.438,12.377 17.438,14C17.438,15.623 16.123,16.938 14.5,16.938ZM20.263,9.295C20.263,9.879 19.79,10.352 19.205,10.352C18.621,10.352 18.148,9.879 18.148,9.295C18.148,8.71 18.621,8.237 19.205,8.237C19.79,8.237 20.263,8.71 20.263,9.295Z" style="fill:white;fill-rule:nonzero;"/>
        </g>
    </g>
</svg>
