<?xml version="1.0" encoding="UTF-8" standalone="no"?><!DOCTYPE svg PUBLIC "-//W3C//DTD SVG 1.1//EN" "http://www.w3.org/Graphics/SVG/1.1/DTD/svg11.dtd"><svg width="100%" height="100%" viewBox="0 0 29 28" version="1.1" xmlns="http://www.w3.org/2000/svg" xmlns:xlink="http://www.w3.org/1999/xlink" xml:space="preserve" xmlns:serif="http://www.serif.com/" style="fill-rule:evenodd;clip-rule:evenodd;stroke-linejoin:round;stroke-miterlimit:2;"><g><g><path d="M25.683,19.659c0,3.051 -2.474,5.524 -5.524,5.524l-11.318,0c-3.05,0 -5.524,-2.473 -5.524,-5.524l-0,-11.317c-0,-3.052 2.474,-5.525 5.524,-5.525l11.318,-0c3.05,-0 5.524,2.473 5.524,5.525l0,11.317Zm-5.524,-19.659l-11.318,0c-4.598,0 -8.34,3.743 -8.34,8.342l-0,11.317c-0,4.6 3.742,8.341 8.34,8.341l11.318,0c4.6,0 8.34,-3.741 8.34,-8.341l0,-11.317c0,-4.599 -3.74,-8.342 -8.34,-8.342" style="fill:#f1585c;fill-rule:nonzero;"/><path d="M14.499,18.426c-2.443,0 -4.424,-1.983 -4.424,-4.426c-0,-2.443 1.981,-4.426 4.424,-4.426c2.445,0 4.425,1.983 4.425,4.426c0,2.443 -1.98,4.426 -4.425,4.426m-0,-11.668c-3.992,-0 -7.241,3.249 -7.241,7.242c-0,3.993 3.249,7.243 7.241,7.243c3.994,-0 7.243,-3.25 7.243,-7.243c0,-3.993 -3.249,-7.242 -7.243,-7.242" style="fill:#f1585c;fill-rule:nonzero;"/><path d="M21.757,5.077c0.958,0 1.733,0.777 1.733,1.736c0,0.957 -0.775,1.734 -1.733,1.734c-0.96,0 -1.736,-0.777 -1.736,-1.734c-0,-0.959 0.776,-1.736 1.736,-1.736" style="fill:#f1585c;fill-rule:nonzero;"/></g></g></svg>