<?xml version="1.0" encoding="UTF-8" standalone="no"?><!DOCTYPE svg PUBLIC "-//W3C//DTD SVG 1.1//EN" "http://www.w3.org/Graphics/SVG/1.1/DTD/svg11.dtd"><svg width="100%" height="100%" viewBox="0 0 28 28" version="1.1" xmlns="http://www.w3.org/2000/svg" xmlns:xlink="http://www.w3.org/1999/xlink" xml:space="preserve" xmlns:serif="http://www.serif.com/" style="fill-rule:evenodd;clip-rule:evenodd;stroke-linejoin:round;stroke-miterlimit:2;"><g><path d="M17.24,14.294l-2.243,-0l-0,8.007l-3.331,-0l-0,-8.007l-1.582,-0l-0,-2.83l1.582,-0l-0,-1.829c-0,-1.313 0.624,-3.36 3.36,-3.36l2.465,0.008l0,2.748l-1.788,-0c-0.292,-0 -0.706,0.145 -0.706,0.771l-0,1.663l2.534,-0l-0.291,2.829Zm-3.432,-14.294c-7.612,-0 -13.808,6.194 -13.808,13.808c0,7.613 6.196,13.808 13.808,13.808c7.612,-0 13.809,-6.195 13.809,-13.808c0,-7.614 -6.194,-13.808 -13.809,-13.808" style="fill:#231f20;fill-rule:nonzero;"/></g></svg>