<?xml version="1.0" encoding="UTF-8" standalone="no"?>
<!DOCTYPE svg PUBLIC "-//W3C//DTD SVG 1.1//EN" "http://www.w3.org/Graphics/SVG/1.1/DTD/svg11.dtd">
<svg width="100%" height="100%" viewBox="0 0 490 104" version="1.1" xmlns="http://www.w3.org/2000/svg" xmlns:xlink="http://www.w3.org/1999/xlink" xml:space="preserve" xmlns:serif="http://www.serif.com/" style="fill-rule:evenodd;clip-rule:evenodd;stroke-linejoin:round;stroke-miterlimit:2;">
    <g transform="matrix(1,0,0,1,-96.4668,-62.3102)">
        <g transform="matrix(1,0,0,1,262.195,159.319)">
            <path d="M4.122,-42.006L-6.064,-42.006L-6.064,-36.47L-3.073,-36.47L-3.073,0L4.122,0L4.122,-42.006Z" style="fill:rgb(35,31,32);fill-rule:nonzero;"/>
        </g>
        <g transform="matrix(1,0,0,1,167.941,121.783)">
            <path d="M0,32.036L-11.087,32.036L-11.087,17.84L-0.951,17.84C4.072,17.69 6.668,20.347 6.668,25.045C6.668,29.44 4.155,32.036 0,32.036M-11.087,1.22L-1.381,1.22C3.426,1.109 5.795,2.796 5.795,6.401C5.795,10.151 3.505,12.289 -0.475,12.289L-11.087,12.289L-11.087,1.22ZM6.165,14.855C10.512,13.481 12.779,10.534 12.779,5.769C12.779,-5.5 2,-4.444 -1.381,-4.444L-21.309,-4.444L-21.309,1.22L-17.955,1.22L-17.955,37.006L-18.054,37.536L0.889,37.536C10.441,37.536 13.956,32.341 13.956,26.007C13.956,19.821 11.283,16.538 6.165,14.855" style="fill:rgb(35,31,32);fill-rule:nonzero;"/>
        </g>
        <g transform="matrix(1,0,0,1,242.216,153.611)">
            <path d="M0,-30.565C-11.537,-21.483 -21.311,-7.889 -22.767,5.708L10.158,5.708L10.158,-9.493L4.192,-9.493L4.192,0.208L-13.333,0.208C-13.866,-6.74 -0.239,-24.612 9.697,-29.882L9.697,-36.273L-18.95,-36.273L-18.95,-30.608C-18.95,-30.608 -6.306,-30.565 0,-30.565" style="fill:rgb(35,31,32);fill-rule:nonzero;"/>
        </g>
        <g transform="matrix(1,0,0,1,215.799,150.329)">
            <path d="M0,-24.026L0,-29.637L-0.007,-29.637L-0.007,-33.016L-31.016,-33.016L-31.016,-27.48L-28.019,-27.48L-28.019,8.99L-20.824,8.99L-20.824,8.987L-0.007,8.987L-0.007,4.595L0,4.595L0,-1.586L-5.543,-1.586L-5.543,3.447L-20.824,3.447L-20.824,-10.738L-7.754,-10.738L-7.754,-16.285L-20.824,-16.285L-20.824,-27.48L-5.543,-27.48L-5.543,-24.026L0,-24.026Z" style="fill:rgb(35,31,32);fill-rule:nonzero;"/>
        </g>
        <g transform="matrix(1,0,0,1,327.063,144.767)">
            <path d="M0,-12.916L13.149,-27.468L6.101,-27.468C5.082,-26.134 3.395,-24.337 3.395,-24.337L-8.504,-11.165L-8.504,-27.468L-18.909,-27.468L-18.909,-21.927L-15.696,-21.927L-15.696,14.552L-8.504,14.552L-8.504,-3.503L-4.747,-7.655C-0.646,-0.016 5.041,10.679 6.896,14.549L14.97,14.549L0,-12.916Z" style="fill:rgb(35,31,32);fill-rule:nonzero;"/>
        </g>
        <g transform="matrix(1,0,0,1,281.785,141.745)">
            <path d="M0,-7.118L0,-18.867L8.557,-18.867C13.363,-18.984 15.618,-16.966 15.618,-13.351C15.618,-9.604 13.439,-7.118 9.465,-7.118L0,-7.118ZM19.837,12.013L12.229,-1.928C15.976,-2.521 22.606,-4.813 22.606,-13.429C22.606,-24.691 11.94,-24.54 8.557,-24.54L-10.209,-24.54L-10.209,-18.867L-7.21,-18.867L-7.21,17.573L0,17.573L0,-1.715L4.676,-1.715C8.548,5.526 13.13,14.177 14.756,17.57L23.352,17.57L23.352,12.013L19.837,12.013Z" style="fill:rgb(35,31,32);fill-rule:nonzero;"/>
        </g>
        <g transform="matrix(1,0,0,1,130.792,121.076)">
            <path d="M0,-58.605C-5.798,-58.138 -11.958,-56.729 -16.72,-53.496C-22.878,-49.305 -25.748,-42.816 -24.443,-36.865C-17.998,-39.613 -9.748,-40.362 -4.049,-39.908C0.31,-39.563 4.942,-38.489 8.524,-36.056C15.938,-31.031 17.016,-21.553 9.067,-16.435C7.622,-15.5 6.044,-14.839 4.335,-14.446C3.755,-14.313 -2.066,-13.604 -2.066,-13.728L-2.211,-13.728L-2.211,1.114C0.345,-11.736 9.79,-15.724 16.176,-17.126C22.763,-18.574 40.225,-23.417 40.225,-38.261C40.225,-55.276 14.181,-59.719 0,-58.605" style="fill:rgb(255,206,25);fill-rule:nonzero;"/>
        </g>
        <g transform="matrix(1,0,0,1,128.342,113.443)">
            <path d="M0,-16.185L-0.196,-16.185C-0.196,-16.096 -4.902,-16.621 -5.254,-16.658C-7.534,-16.936 -9.824,-17.372 -11.963,-18.221C-15.771,-19.731 -19.305,-22.657 -21.043,-26.42C-21.123,-26.585 -21.652,-27.917 -21.886,-28.68C-21.982,-28.996 -22.036,-29.222 -21.993,-29.232C-27.616,-26.838 -31.875,-22.935 -31.875,-16.967C-31.875,-5.799 -18.736,-2.153 -13.776,-1.061C-8.969,-0 -1.826,3.01 0.072,12.732C0.134,13.047 0.239,12.717 0.239,12.717L0.239,-16.169C0.239,-16.169 0,-16.169 0,-16.185" style="fill:rgb(224,24,58);fill-rule:nonzero;"/>
        </g>
        <g transform="matrix(1,0,0,1,346.061,158.414)">
            <path d="M0,-1.81L-0.443,-1.804L-0.434,-0.967L0.009,-0.972C0.275,-0.976 0.46,-1.151 0.46,-1.393C0.456,-1.633 0.268,-1.812 0,-1.81M0.487,0.283L-0.07,-0.687L-0.433,-0.684L-0.419,0.291L-0.753,0.295L-0.778,-2.096L0.035,-2.105C0.45,-2.109 0.79,-1.801 0.794,-1.397C0.798,-1.047 0.584,-0.828 0.29,-0.735L0.874,0.278L0.487,0.283ZM-0.074,-2.768C-1.086,-2.755 -1.897,-1.908 -1.886,-0.885C-1.874,0.139 -1.048,0.968 -0.035,0.955C0.976,0.944 1.794,0.097 1.78,-0.925C1.772,-1.949 0.936,-2.777 -0.074,-2.768M-0.033,1.273C-1.235,1.288 -2.223,0.321 -2.234,-0.881C-2.248,-2.087 -1.284,-3.073 -0.08,-3.086C1.125,-3.098 2.111,-2.133 2.126,-0.93C2.138,0.275 1.173,1.26 -0.033,1.273" style="fill:rgb(35,31,32);fill-rule:nonzero;"/>
        </g>
        <g transform="matrix(1,0,0,1,377.789,126.109)">
            <path d="M0,11.901C-0.434,12.107 -0.975,12.275 -1.617,12.406C-2.264,12.537 -2.911,12.603 -3.562,12.603C-4.566,12.603 -5.42,12.466 -6.121,12.193C-6.824,11.918 -7.396,11.506 -7.844,10.958C-8.287,10.412 -8.611,9.719 -8.811,8.888C-9.01,8.053 -9.109,7.077 -9.109,5.96C-9.109,3.664 -8.659,1.981 -7.756,0.907C-6.856,-0.165 -5.417,-0.702 -3.441,-0.702C-2.882,-0.702 -2.314,-0.651 -1.74,-0.548C-1.162,-0.445 -0.649,-0.303 -0.205,-0.12L-0.479,2.276C-0.879,2.118 -1.326,1.989 -1.824,1.892C-2.32,1.796 -2.809,1.746 -3.288,1.746C-3.858,1.746 -4.338,1.809 -4.727,1.935C-5.114,2.061 -5.422,2.283 -5.65,2.604C-5.88,2.923 -6.041,3.35 -6.139,3.887C-6.235,4.423 -6.285,5.103 -6.285,5.924C-6.285,6.758 -6.24,7.446 -6.146,7.987C-6.057,8.529 -5.905,8.959 -5.693,9.273C-5.482,9.588 -5.208,9.803 -4.872,9.923C-4.535,10.043 -4.121,10.103 -3.631,10.103C-3.402,10.103 -3.188,10.094 -2.988,10.077C-2.788,10.06 -2.598,10.023 -2.413,9.965L-2.413,5.411L0,5.411L0,11.901Z" style="fill:rgb(35,31,32);fill-rule:nonzero;"/>
        </g>
        <g transform="matrix(1,0,0,1,386.727,132.069)">
            <path d="M0,-0.018C0,-0.873 -0.038,-1.57 -0.119,-2.108C-0.199,-2.642 -0.331,-3.064 -0.513,-3.365C-0.696,-3.668 -0.935,-3.873 -1.233,-3.982C-1.529,-4.09 -1.894,-4.145 -2.328,-4.145C-2.762,-4.145 -3.127,-4.087 -3.424,-3.974C-3.722,-3.859 -3.961,-3.651 -4.143,-3.348C-4.325,-3.046 -4.457,-2.625 -4.537,-2.09C-4.616,-1.553 -4.656,-0.863 -4.656,-0.018C-4.656,0.838 -4.616,1.535 -4.537,2.072C-4.457,2.607 -4.325,3.03 -4.143,3.339C-3.961,3.647 -3.717,3.858 -3.416,3.972C-3.113,4.086 -2.745,4.143 -2.312,4.143C-1.877,4.143 -1.512,4.086 -1.215,3.972C-0.919,3.858 -0.681,3.647 -0.504,3.339C-0.328,3.03 -0.199,2.605 -0.119,2.063C-0.038,1.52 0,0.827 0,-0.018M2.826,-0.018C2.826,1.191 2.729,2.22 2.535,3.064C2.34,3.91 2.036,4.594 1.62,5.119C1.201,5.644 0.669,6.027 0.018,6.266C-0.632,6.507 -1.415,6.626 -2.328,6.626C-3.218,6.626 -3.99,6.503 -4.639,6.257C-5.291,6.013 -5.828,5.622 -6.25,5.086C-6.67,4.547 -6.984,3.861 -7.184,3.022C-7.383,2.182 -7.481,1.169 -7.481,-0.018C-7.481,-1.205 -7.385,-2.217 -7.191,-3.058C-6.998,-3.895 -6.692,-4.581 -6.276,-5.111C-5.859,-5.643 -5.324,-6.031 -4.674,-6.276C-4.022,-6.521 -3.24,-6.644 -2.328,-6.644C-1.415,-6.644 -0.632,-6.521 0.018,-6.276C0.669,-6.031 1.201,-5.643 1.62,-5.111C2.036,-4.581 2.34,-3.895 2.535,-3.058C2.729,-2.217 2.826,-1.205 2.826,-0.018" style="fill:rgb(35,31,32);fill-rule:nonzero;"/>
        </g>
        <g transform="matrix(1,0,0,1,398.834,128.062)">
            <path d="M0,7.979L-0.069,10.412L-7.979,10.412L-7.979,-2.433L-0.309,-2.433L-0.257,0.033L-5.291,0.033L-5.291,2.67L-1.062,2.67L-1.062,4.93L-5.291,4.93L-5.291,7.979L0,7.979Z" style="fill:rgb(35,31,32);fill-rule:nonzero;"/>
        </g>
        <g transform="matrix(1,0,0,1,405.374,135.956)">
            <path d="M0,-7.809L0,2.518L-2.724,2.518L-2.724,-7.809L-5.839,-7.809L-5.771,-10.327L3.065,-10.327L3.116,-7.809L0,-7.809Z" style="fill:rgb(35,31,32);fill-rule:nonzero;"/>
        </g>
        <g transform="matrix(1,0,0,1,416.453,125.629)">
            <path d="M0,12.845L0,7.518L-3.973,7.518L-3.973,12.845L-6.66,12.845L-6.66,0L-3.973,0L-3.973,5.018L0,5.018L0,0L2.688,0L2.688,12.845L0,12.845Z" style="fill:rgb(35,31,32);fill-rule:nonzero;"/>
        </g>
        <g transform="matrix(1,0,0,1,429.348,128.062)">
            <path d="M0,7.979L-0.068,10.412L-7.98,10.412L-7.98,-2.433L-0.309,-2.433L-0.257,0.033L-5.29,0.033L-5.29,2.67L-1.062,2.67L-1.062,4.93L-5.29,4.93L-5.29,7.979L0,7.979Z" style="fill:rgb(35,31,32);fill-rule:nonzero;"/>
        </g>
        <g transform="matrix(-1,0,0,1,865.869,-714.754)">
            <rect x="430.666" y="845.952" width="4.537" height="1.85" style="fill:rgb(35,31,32);"/>
        </g>
        <g transform="matrix(1,0,0,1,436.54,125.629)">
            <path d="M0,12.845L0,11.012L4.537,3.666L5.29,2.536L5.257,2.501L0.118,2.501L0.206,0L8.441,0L8.441,2.022L4.006,9.197L3.27,10.309L3.287,10.362L8.476,10.362L8.424,12.845L0,12.845Z" style="fill:rgb(35,31,32);fill-rule:nonzero;"/>
        </g>
        <g transform="matrix(1,0,0,1,454.706,128.062)">
            <path d="M0,7.979L-0.067,10.412L-7.979,10.412L-7.979,-2.433L-0.308,-2.433L-0.256,0.033L-5.289,0.033L-5.289,2.67L-1.061,2.67L-1.061,4.93L-5.289,4.93L-5.289,7.979L0,7.979Z" style="fill:rgb(35,31,32);fill-rule:nonzero;"/>
        </g>
        <g transform="matrix(1,0,0,1,463.852,125.629)">
            <path d="M0,12.845L-4.401,5.892L-5.121,4.693L-5.154,4.71L-5.138,6.098L-5.138,12.845L-7.518,12.845L-7.518,0L-5.205,0L-0.445,7.792L-0.411,7.775L-0.445,6.405L-0.445,0L1.917,0L1.917,12.845L0,12.845Z" style="fill:rgb(35,31,32);fill-rule:nonzero;"/>
        </g>
        <g transform="matrix(1,0,0,1,472.909,135.956)">
            <path d="M0,-7.809L0,2.518L-2.723,2.518L-2.723,-7.809L-5.839,-7.809L-5.771,-10.327L3.065,-10.327L3.116,-7.809L0,-7.809Z" style="fill:rgb(35,31,32);fill-rule:nonzero;"/>
        </g>
        <g transform="matrix(1,0,0,1,483.199,134.414)">
            <path d="M0,-4.725C0,-5.388 -0.121,-5.842 -0.366,-6.088C-0.613,-6.333 -1.031,-6.455 -1.625,-6.455L-3.184,-6.455L-3.184,-2.962L-1.66,-2.962C-1.363,-2.962 -1.109,-2.988 -0.896,-3.039C-0.686,-3.09 -0.516,-3.182 -0.383,-3.314C-0.254,-3.444 -0.156,-3.625 -0.094,-3.853C-0.031,-4.081 0,-4.371 0,-4.725M2.793,-4.829C2.793,-3.904 2.625,-3.147 2.287,-2.559C1.95,-1.972 1.469,-1.576 0.841,-1.37L3.546,4.06L0.43,4.06L-1.608,-0.839L-3.184,-0.839L-3.184,4.06L-5.871,4.06L-5.871,-8.785L-1.66,-8.785C-0.153,-8.785 0.966,-8.474 1.696,-7.851C2.428,-7.228 2.793,-6.222 2.793,-4.829" style="fill:rgb(35,31,32);fill-rule:nonzero;"/>
        </g>
        <g transform="matrix(1,0,0,1,497.241,130.218)">
            <path d="M0,3.888C0,6.947 -1.571,8.477 -4.71,8.477C-6.273,8.477 -7.456,8.101 -8.253,7.347C-9.052,6.593 -9.452,5.44 -9.452,3.888L-9.452,-4.589L-6.745,-4.589L-6.745,3.853C-6.745,4.596 -6.586,5.133 -6.268,5.463C-5.947,5.793 -5.429,5.961 -4.71,5.961C-3.989,5.961 -3.474,5.798 -3.159,5.471C-2.846,5.146 -2.688,4.608 -2.688,3.853L-2.688,-4.589L0,-4.589L0,3.888Z" style="fill:rgb(35,31,32);fill-rule:nonzero;"/>
        </g>
        <g transform="matrix(1,0,0,1,502.275,138.474)">
            <path d="M0,-12.845L2.638,-5.429L3.083,-4.129L3.134,-4.129L3.562,-5.429L6.217,-12.845L9.212,-12.845L9.212,0L6.748,0L6.748,-6.457L6.781,-7.845L6.729,-7.862L6.284,-6.544L3.955,0L2.158,0L-0.154,-6.526L-0.599,-7.845L-0.634,-7.827L-0.616,-6.44L-0.616,0L-2.979,0L-2.979,-12.845L0,-12.845Z" style="fill:rgb(35,31,32);fill-rule:nonzero;"/>
        </g>
        <g transform="matrix(1,0,0,1,374.211,141.601)">
            <path d="M0,9.382L-2.102,5.379L-2.938,5.379L-2.938,9.382L-4.903,9.382L-4.903,0L-2.938,0L-2.938,3.752L-2.051,3.752L-0.023,0L2.202,0L-0.287,4.465L2.338,9.382L0,9.382Z" style="fill:rgb(35,31,32);fill-rule:nonzero;"/>
        </g>
        <g transform="matrix(1,0,0,1,382.693,146.303)">
            <path d="M0,-0.012C0,-0.638 -0.029,-1.146 -0.088,-1.538C-0.146,-1.93 -0.242,-2.237 -0.376,-2.458C-0.509,-2.678 -0.684,-2.829 -0.9,-2.909C-1.117,-2.987 -1.384,-3.027 -1.701,-3.027C-2.018,-3.027 -2.286,-2.986 -2.502,-2.902C-2.719,-2.82 -2.894,-2.665 -3.027,-2.446C-3.16,-2.225 -3.257,-1.918 -3.314,-1.526C-3.375,-1.134 -3.402,-0.629 -3.402,-0.012C-3.402,0.613 -3.375,1.122 -3.314,1.514C-3.257,1.906 -3.16,2.214 -3.027,2.439C-2.894,2.665 -2.718,2.821 -2.496,2.902C-2.275,2.985 -2.006,3.027 -1.689,3.027C-1.372,3.027 -1.106,2.985 -0.888,2.902C-0.672,2.821 -0.499,2.665 -0.368,2.439C-0.24,2.214 -0.146,1.905 -0.088,1.509C-0.029,1.112 0,0.604 0,-0.012M2.063,-0.012C2.063,0.872 1.994,1.623 1.853,2.24C1.71,2.857 1.486,3.357 1.183,3.741C0.878,4.125 0.488,4.403 0.013,4.578C-0.463,4.755 -1.035,4.841 -1.701,4.841C-2.353,4.841 -2.916,4.751 -3.39,4.572C-3.866,4.393 -4.257,4.107 -4.566,3.715C-4.876,3.324 -5.101,2.821 -5.247,2.208C-5.395,1.595 -5.467,0.857 -5.467,-0.012C-5.467,-0.88 -5.396,-1.619 -5.255,-2.233C-5.113,-2.845 -4.889,-3.347 -4.584,-3.734C-4.281,-4.123 -3.891,-4.405 -3.416,-4.583C-2.938,-4.762 -2.369,-4.853 -1.701,-4.853C-1.035,-4.853 -0.463,-4.762 0.013,-4.583C0.488,-4.405 0.878,-4.123 1.183,-3.734C1.486,-3.347 1.71,-2.845 1.853,-2.233C1.994,-1.619 2.063,-0.88 2.063,-0.012" style="fill:rgb(35,31,32);fill-rule:nonzero;"/>
        </g>
        <g transform="matrix(1,0,0,1,391.262,146.303)">
            <path d="M0,-0.012C0,-0.638 -0.027,-1.146 -0.086,-1.538C-0.146,-1.93 -0.241,-2.237 -0.374,-2.458C-0.51,-2.678 -0.684,-2.829 -0.9,-2.909C-1.117,-2.987 -1.383,-3.027 -1.701,-3.027C-2.018,-3.027 -2.284,-2.986 -2.501,-2.902C-2.718,-2.82 -2.893,-2.665 -3.027,-2.446C-3.16,-2.225 -3.256,-1.918 -3.314,-1.526C-3.373,-1.134 -3.401,-0.629 -3.401,-0.012C-3.401,0.613 -3.373,1.122 -3.314,1.514C-3.256,1.906 -3.16,2.214 -3.027,2.439C-2.893,2.665 -2.716,2.821 -2.496,2.902C-2.274,2.985 -2.006,3.027 -1.688,3.027C-1.371,3.027 -1.105,2.985 -0.889,2.902C-0.672,2.821 -0.496,2.665 -0.368,2.439C-0.24,2.214 -0.146,1.905 -0.086,1.509C-0.027,1.112 0,0.604 0,-0.012M2.065,-0.012C2.065,0.872 1.994,1.623 1.852,2.24C1.71,2.857 1.487,3.357 1.184,3.741C0.877,4.125 0.489,4.403 0.012,4.578C-0.462,4.755 -1.033,4.841 -1.701,4.841C-2.352,4.841 -2.914,4.751 -3.389,4.572C-3.863,4.393 -4.257,4.107 -4.564,3.715C-4.874,3.324 -5.101,2.821 -5.248,2.208C-5.393,1.595 -5.467,0.857 -5.467,-0.012C-5.467,-0.88 -5.395,-1.619 -5.253,-2.233C-5.111,-2.845 -4.889,-3.347 -4.584,-3.734C-4.28,-4.123 -3.89,-4.405 -3.415,-4.583C-2.939,-4.762 -2.367,-4.853 -1.701,-4.853C-1.033,-4.853 -0.462,-4.762 0.012,-4.583C0.489,-4.405 0.877,-4.123 1.184,-3.734C1.487,-3.347 1.71,-2.845 1.852,-2.233C1.994,-1.619 2.065,-0.88 2.065,-0.012" style="fill:rgb(35,31,32);fill-rule:nonzero;"/>
        </g>
        <g transform="matrix(1,0,0,1,399.094,147.829)">
            <path d="M0,-3.076C0,-3.36 -0.025,-3.595 -0.076,-3.783C-0.125,-3.972 -0.205,-4.12 -0.313,-4.227C-0.422,-4.336 -0.563,-4.413 -0.737,-4.459C-0.914,-4.505 -1.127,-4.529 -1.377,-4.529L-2.451,-4.529L-2.451,-1.626L-1.364,-1.626C-1.131,-1.626 -0.928,-1.645 -0.751,-1.683C-0.576,-1.719 -0.435,-1.793 -0.326,-1.902C-0.217,-2.009 -0.137,-2.159 -0.081,-2.346C-0.027,-2.533 0,-2.777 0,-3.076M2.026,-3.064C2.026,-2.565 1.965,-2.121 1.839,-1.739C1.714,-1.353 1.516,-1.034 1.245,-0.781C0.973,-0.527 0.622,-0.333 0.193,-0.201C-0.235,-0.066 -0.756,-0 -1.364,-0L-2.451,-0L-2.451,3.153L-4.416,3.153L-4.416,-6.229L-1.364,-6.229C-0.764,-6.229 -0.248,-6.17 0.182,-6.048C0.611,-5.927 0.961,-5.738 1.23,-5.479C1.503,-5.22 1.703,-4.891 1.832,-4.491C1.961,-4.091 2.026,-3.616 2.026,-3.064" style="fill:rgb(35,31,32);fill-rule:nonzero;"/>
        </g>
        <g transform="matrix(1,0,0,1,407.913,143.378)">
            <path d="M0,5.828L-0.05,7.605L-5.83,7.605L-5.83,-1.777L-0.227,-1.777L-0.187,0.024L-3.865,0.024L-3.865,1.951L-0.775,1.951L-0.775,3.602L-3.865,3.602L-3.865,5.828L0,5.828Z" style="fill:rgb(35,31,32);fill-rule:nonzero;"/>
        </g>
        <g transform="matrix(1,0,0,1,413.429,148.017)">
            <path d="M0,-3.452C0,-3.937 -0.089,-4.268 -0.268,-4.446C-0.448,-4.626 -0.754,-4.717 -1.187,-4.717L-2.327,-4.717L-2.327,-2.164L-1.213,-2.164C-0.996,-2.164 -0.811,-2.183 -0.656,-2.22C-0.503,-2.257 -0.378,-2.325 -0.28,-2.421C-0.185,-2.516 -0.114,-2.647 -0.068,-2.815C-0.022,-2.982 0,-3.192 0,-3.452M2.04,-3.528C2.04,-2.851 1.916,-2.3 1.671,-1.871C1.425,-1.441 1.073,-1.151 0.613,-1.001L2.591,2.965L0.314,2.965L-1.177,-0.613L-2.327,-0.613L-2.327,2.965L-4.29,2.965L-4.29,-6.417L-1.213,-6.417C-0.112,-6.417 0.704,-6.19 1.239,-5.736C1.772,-5.281 2.04,-4.546 2.04,-3.528" style="fill:rgb(35,31,32);fill-rule:nonzero;"/>
        </g>
        <g transform="matrix(1,0,0,1,420.008,148.431)">
            <path d="M0,-4.278L-0.826,-1.014L1.315,-1.014L0.489,-4.278L0.275,-5.28L0.24,-5.28L0,-4.278ZM1.74,0.701L-1.263,0.701L-1.725,2.552L-3.801,2.552L-0.924,-6.83L1.477,-6.83L4.394,2.552L2.203,2.552L1.74,0.701Z" style="fill:rgb(35,31,32);fill-rule:nonzero;"/>
        </g>
        <g transform="matrix(1,0,0,1,428.402,149.144)">
            <path d="M0,-5.704L0,1.839L-1.989,1.839L-1.989,-5.704L-4.268,-5.704L-4.215,-7.543L2.24,-7.543L2.277,-5.704L0,-5.704Z" style="fill:rgb(35,31,32);fill-rule:nonzero;"/>
        </g>
        <g transform="matrix(1,0,0,1,0,-686.416)">
            <rect x="431.781" y="828.017" width="2.013" height="9.382" style="fill:rgb(35,31,32);"/>
        </g>
        <g transform="matrix(1,0,0,1,440.736,146.303)">
            <path d="M0,-0.012C0,-0.638 -0.028,-1.146 -0.087,-1.538C-0.145,-1.93 -0.24,-2.237 -0.374,-2.458C-0.51,-2.678 -0.683,-2.829 -0.899,-2.909C-1.117,-2.987 -1.385,-3.027 -1.701,-3.027C-2.018,-3.027 -2.285,-2.986 -2.502,-2.902C-2.719,-2.82 -2.892,-2.665 -3.026,-2.446C-3.16,-2.225 -3.256,-1.918 -3.314,-1.526C-3.373,-1.134 -3.402,-0.629 -3.402,-0.012C-3.402,0.613 -3.373,1.122 -3.314,1.514C-3.256,1.906 -3.16,2.214 -3.026,2.439C-2.892,2.665 -2.716,2.821 -2.494,2.902C-2.274,2.985 -2.004,3.027 -1.688,3.027C-1.37,3.027 -1.104,2.985 -0.887,2.902C-0.67,2.821 -0.497,2.665 -0.369,2.439C-0.238,2.214 -0.145,1.905 -0.087,1.509C-0.028,1.112 0,0.604 0,-0.012M2.064,-0.012C2.064,0.872 1.993,1.623 1.852,2.24C1.709,2.857 1.488,3.357 1.184,3.741C0.878,4.125 0.488,4.403 0.014,4.578C-0.462,4.755 -1.033,4.841 -1.701,4.841C-2.352,4.841 -2.913,4.751 -3.389,4.572C-3.864,4.393 -4.257,4.107 -4.565,3.715C-4.873,3.324 -5.102,2.821 -5.248,2.208C-5.393,1.595 -5.465,0.857 -5.465,-0.012C-5.465,-0.88 -5.395,-1.619 -5.252,-2.233C-5.111,-2.845 -4.889,-3.347 -4.584,-3.734C-4.279,-4.123 -3.891,-4.405 -3.414,-4.583C-2.939,-4.762 -2.367,-4.853 -1.701,-4.853C-1.033,-4.853 -0.462,-4.762 0.014,-4.583C0.488,-4.405 0.878,-4.123 1.184,-3.734C1.488,-3.347 1.709,-2.845 1.852,-2.233C1.993,-1.619 2.064,-0.88 2.064,-0.012" style="fill:rgb(35,31,32);fill-rule:nonzero;"/>
        </g>
        <g transform="matrix(1,0,0,1,449.644,141.601)">
            <path d="M0,9.382L-3.216,4.302L-3.74,3.426L-3.765,3.44L-3.752,4.453L-3.752,9.382L-5.49,9.382L-5.49,0L-3.803,0L-0.325,5.691L-0.3,5.678L-0.325,4.679L-0.325,0L1.402,0L1.402,9.382L0,9.382Z" style="fill:rgb(35,31,32);fill-rule:nonzero;"/>
        </g>
        <g transform="matrix(1,0,0,1,458.163,144.39)">
            <path d="M0,3.814C0,4.742 -0.28,5.461 -0.837,5.98C-1.397,6.496 -2.185,6.754 -3.201,6.754C-3.694,6.754 -4.165,6.7 -4.609,6.587C-5.056,6.475 -5.462,6.308 -5.829,6.091L-5.566,4.365C-5.199,4.557 -4.827,4.709 -4.447,4.821C-4.067,4.934 -3.664,4.991 -3.24,4.991C-2.765,4.991 -2.42,4.904 -2.208,4.728C-1.995,4.553 -1.89,4.29 -1.89,3.94C-1.89,3.681 -1.983,3.473 -2.177,3.315C-2.367,3.157 -2.61,3.013 -2.902,2.883C-3.194,2.755 -3.507,2.621 -3.84,2.482C-4.174,2.346 -4.487,2.168 -4.778,1.952C-5.069,1.734 -5.313,1.461 -5.503,1.132C-5.696,0.802 -5.792,0.385 -5.792,-0.125C-5.792,-0.527 -5.732,-0.896 -5.61,-1.239C-5.49,-1.58 -5.3,-1.876 -5.041,-2.127C-4.782,-2.376 -4.457,-2.575 -4.065,-2.721C-3.674,-2.868 -3.207,-2.94 -2.664,-2.94C-2.238,-2.94 -1.82,-2.901 -1.407,-2.822C-0.995,-2.742 -0.626,-2.627 -0.3,-2.478L-0.524,-0.776C-1.234,-1.018 -1.905,-1.138 -2.538,-1.138C-2.807,-1.138 -3.028,-1.114 -3.201,-1.07C-3.378,-1.023 -3.517,-0.959 -3.621,-0.877C-3.726,-0.794 -3.799,-0.695 -3.84,-0.582C-3.882,-0.469 -3.903,-0.347 -3.903,-0.213C-3.903,0.036 -3.807,0.24 -3.615,0.394C-3.424,0.548 -3.182,0.688 -2.89,0.812C-2.599,0.939 -2.284,1.069 -1.951,1.207C-1.617,1.345 -1.305,1.522 -1.013,1.739C-0.721,1.955 -0.479,2.228 -0.286,2.557C-0.095,2.888 0,3.306 0,3.814" style="fill:rgb(35,31,32);fill-rule:nonzero;"/>
        </g>
        <g transform="matrix(1,0,0,1,463.755,147.829)">
            <path d="M0,-3.076C0,-3.36 -0.024,-3.595 -0.075,-3.783C-0.126,-3.972 -0.204,-4.12 -0.312,-4.227C-0.421,-4.336 -0.563,-4.413 -0.738,-4.459C-0.913,-4.505 -1.126,-4.529 -1.376,-4.529L-2.451,-4.529L-2.451,-1.626L-1.364,-1.626C-1.131,-1.626 -0.925,-1.645 -0.751,-1.683C-0.574,-1.719 -0.433,-1.793 -0.326,-1.902C-0.217,-2.009 -0.136,-2.159 -0.081,-2.346C-0.025,-2.533 0,-2.777 0,-3.076M2.027,-3.064C2.027,-2.565 1.964,-2.121 1.839,-1.739C1.714,-1.353 1.515,-1.034 1.245,-0.781C0.974,-0.527 0.624,-0.333 0.192,-0.201C-0.237,-0.066 -0.756,-0 -1.364,-0L-2.451,-0L-2.451,3.153L-4.415,3.153L-4.415,-6.229L-1.364,-6.229C-0.765,-6.229 -0.248,-6.17 0.182,-6.048C0.611,-5.927 0.961,-5.738 1.233,-5.479C1.504,-5.22 1.704,-4.891 1.833,-4.491C1.962,-4.091 2.027,-3.616 2.027,-3.064" style="fill:rgb(35,31,32);fill-rule:nonzero;"/>
        </g>
        <g transform="matrix(1,0,0,1,469.56,148.431)">
            <path d="M0,-4.278L-0.827,-1.014L1.313,-1.014L0.488,-4.278L0.274,-5.28L0.238,-5.28L0,-4.278ZM1.738,0.701L-1.265,0.701L-1.727,2.552L-3.803,2.552L-0.927,-6.83L1.475,-6.83L4.392,2.552L2.203,2.552L1.738,0.701Z" style="fill:rgb(35,31,32);fill-rule:nonzero;"/>
        </g>
        <g transform="matrix(1,0,0,1,479.154,148.017)">
            <path d="M0,-3.452C0,-3.937 -0.089,-4.268 -0.27,-4.446C-0.449,-4.626 -0.754,-4.717 -1.187,-4.717L-2.327,-4.717L-2.327,-2.164L-1.215,-2.164C-0.998,-2.164 -0.812,-2.183 -0.657,-2.22C-0.502,-2.257 -0.377,-2.325 -0.282,-2.421C-0.186,-2.516 -0.115,-2.647 -0.068,-2.815C-0.023,-2.982 0,-3.192 0,-3.452M2.04,-3.528C2.04,-2.851 1.914,-2.3 1.67,-1.871C1.424,-1.441 1.071,-1.151 0.611,-1.001L2.59,2.965L0.312,2.965L-1.177,-0.613L-2.327,-0.613L-2.327,2.965L-4.291,2.965L-4.291,-6.417L-1.215,-6.417C-0.112,-6.417 0.706,-6.19 1.238,-5.736C1.771,-5.281 2.04,-4.546 2.04,-3.528" style="fill:rgb(35,31,32);fill-rule:nonzero;"/>
        </g>
        <g transform="matrix(1,0,0,1,486.008,149.144)">
            <path d="M0,-5.704L0,1.839L-1.988,1.839L-1.988,-5.704L-4.264,-5.704L-4.213,-7.543L2.242,-7.543L2.277,-5.704L0,-5.704Z" style="fill:rgb(35,31,32);fill-rule:nonzero;"/>
        </g>
        <g transform="matrix(1,0,0,1,494.768,141.601)">
            <path d="M0,9.382L-3.217,4.302L-3.743,3.426L-3.768,3.44L-3.755,4.453L-3.755,9.382L-5.494,9.382L-5.494,0L-3.803,0L-0.327,5.691L-0.303,5.678L-0.327,4.679L-0.327,0L1.399,0L1.399,9.382L0,9.382Z" style="fill:rgb(35,31,32);fill-rule:nonzero;"/>
        </g>
        <g transform="matrix(1,0,0,1,503.661,143.378)">
            <path d="M0,5.828L-0.051,7.605L-5.831,7.605L-5.831,-1.777L-0.226,-1.777L-0.187,0.024L-3.866,0.024L-3.866,1.951L-0.776,1.951L-0.776,3.602L-3.866,3.602L-3.866,5.828L0,5.828Z" style="fill:rgb(35,31,32);fill-rule:nonzero;"/>
        </g>
        <g transform="matrix(1,0,0,1,509.177,148.017)">
            <path d="M0,-3.452C0,-3.937 -0.091,-4.268 -0.267,-4.446C-0.448,-4.626 -0.754,-4.717 -1.187,-4.717L-2.327,-4.717L-2.327,-2.164L-1.215,-2.164C-0.997,-2.164 -0.812,-2.183 -0.656,-2.22C-0.502,-2.257 -0.377,-2.325 -0.28,-2.421C-0.186,-2.516 -0.115,-2.647 -0.068,-2.815C-0.021,-2.982 0,-3.192 0,-3.452M2.039,-3.528C2.039,-2.851 1.917,-2.3 1.669,-1.871C1.425,-1.441 1.072,-1.151 0.614,-1.001L2.589,2.965L0.312,2.965L-1.175,-0.613L-2.327,-0.613L-2.327,2.965L-4.29,2.965L-4.29,-6.417L-1.215,-6.417C-0.112,-6.417 0.704,-6.19 1.239,-5.736C1.772,-5.281 2.039,-4.546 2.039,-3.528" style="fill:rgb(35,31,32);fill-rule:nonzero;"/>
        </g>
        <g transform="matrix(1,0,0,1,577.33,106.403)">
            <path d="M0,-13.045C3.602,-13.045 6.521,-10.126 6.521,-6.523C6.521,-2.92 3.602,0.001 0,0.001C-3.603,0.001 -6.521,-2.92 -6.521,-6.523C-6.521,-10.126 -3.603,-13.045 0,-13.045M0,1.87C4.635,1.87 8.394,-1.886 8.394,-6.523C8.394,-11.158 4.635,-14.915 0,-14.915C-4.636,-14.915 -8.395,-11.158 -8.395,-6.523C-8.395,-1.886 -4.636,1.87 0,1.87" style="fill:rgb(35,31,32);fill-rule:nonzero;"/>
        </g>
        <g transform="matrix(1,0,0,1,556.285,114.508)">
            <path d="M0,-0.006C0,-3.554 2.877,-6.429 6.423,-6.429L6.425,-8.262C1.859,-8.262 -1.84,-4.571 -1.84,-0.008C-1.84,4.557 1.859,8.256 6.423,8.256C10.989,8.256 14.676,4.557 14.676,-0.006L12.856,-0.006C12.856,3.54 9.972,6.416 6.423,6.416C2.877,6.416 0,3.54 0,-0.006" style="fill:rgb(35,31,32);fill-rule:nonzero;"/>
        </g>
        <g transform="matrix(1,0,0,1,550.785,114.502)">
            <path d="M0,-0.002C0,6.585 5.339,11.922 11.923,11.922C18.51,11.922 23.86,6.585 23.86,-0.002L22.033,0C22.033,5.574 17.498,10.091 11.923,10.091C6.35,10.091 1.832,5.572 1.832,-0.002C1.832,-5.575 6.35,-10.092 11.925,-10.092L11.923,-11.924C5.339,-11.924 0,-6.587 0,-0.002" style="fill:rgb(35,31,32);fill-rule:nonzero;"/>
        </g>
        <g transform="matrix(1,0,0,1,547.086,114.518)">
            <path d="M0,-0.018C0,8.611 6.994,15.606 15.622,15.606C24.251,15.606 31.229,8.612 31.229,-0.016L29.39,-0.016C29.39,7.58 23.219,13.738 15.622,13.738C8.025,13.738 1.868,7.58 1.868,-0.016C1.868,-7.612 8.025,-13.772 15.622,-13.772L15.624,-15.624C6.994,-15.624 0,-8.647 0,-0.018" style="fill:rgb(35,31,32);fill-rule:nonzero;"/>
        </g>
        <g transform="matrix(1,0,0,1,562.71,133.83)">
            <path d="M0,-38.659C-10.676,-38.659 -19.331,-30.006 -19.331,-19.33C-19.331,-8.654 -10.676,0 0,0C10.675,0 19.316,-8.652 19.316,-19.328L17.479,-19.33C17.479,-9.683 9.646,-1.862 0,-1.862C-9.647,-1.862 -17.466,-9.683 -17.466,-19.33C-17.466,-28.976 -9.647,-36.796 0,-36.796L0,-38.659Z" style="fill:rgb(35,31,32);fill-rule:nonzero;"/>
        </g>
        <g transform="matrix(1,0,0,1,562.712,93.3222)">
            <path d="M0,42.358C-11.7,42.358 -21.181,32.875 -21.181,21.178C-21.181,9.481 -11.7,-0.001 0,-0.001L-0.002,-1.834C-12.714,-1.834 -23.014,8.468 -23.014,21.178C-23.014,33.888 -12.71,44.192 0,44.192C12.708,44.192 23.012,33.89 23.012,21.18L21.191,21.178C21.191,32.875 11.695,42.358 0,42.358" style="fill:rgb(35,31,32);fill-rule:nonzero;"/>
        </g>
        <g transform="matrix(1,0,0,1,544.201,144.271)">
            <path d="M0,9.381C0.92,9.381 2.051,9.175 2.665,8.886L2.665,3.902L-0.472,3.902L-0.472,5.47L0.774,5.47L0.774,7.708C0.555,7.746 0.225,7.763 -0.048,7.763C-1.437,7.763 -2.514,7.028 -2.514,4.673C-2.514,2.354 -1.426,1.619 0.193,1.619C0.871,1.619 1.761,1.765 2.329,1.995L2.52,0.412C1.894,0.157 0.871,0 0.084,0C-2.705,0 -4.503,1.461 -4.503,4.697C-4.503,7.862 -2.839,9.381 0,9.381" style="fill:rgb(35,31,32);fill-rule:nonzero;"/>
        </g>
        <g transform="matrix(1,0,0,1,575.825,144.417)">
            <path d="M0,9.055L1.944,9.055L1.944,0L0,0L0,3.576L-2.91,3.576L-2.91,0L-4.854,0L-4.854,9.055L-2.91,9.055L-2.91,5.192L0,5.192L0,9.055Z" style="fill:rgb(35,31,32);fill-rule:nonzero;"/>
        </g>
        <g transform="matrix(1,0,0,1,567.911,144.417)">
            <path d="M0,9.055L0,1.63L1.968,1.63L1.968,0L-3.935,0L-3.935,1.63L-1.968,1.63L-1.968,9.055L0,9.055Z" style="fill:rgb(35,31,32);fill-rule:nonzero;"/>
        </g>
        <g transform="matrix(1,0,0,1,559.402,148.272)">
            <path d="M0,1.345L3.195,1.345L3.195,-0.252L0,-0.252L0,-2.239L3.764,-2.239L3.764,-3.855L-1.943,-3.855L-1.943,5.2L3.891,5.2L3.891,3.586L0,3.586L0,1.345Z" style="fill:rgb(35,31,32);fill-rule:nonzero;"/>
        </g>
        <g transform="matrix(1,0,0,1,552.127,152.127)">
            <path d="M0,-6.363C1.234,-6.363 1.824,-5.591 1.824,-3.188C1.824,-0.796 1.234,0.011 0.014,0.011C-1.221,0.011 -1.824,-0.784 -1.824,-3.188C-1.824,-5.579 -1.221,-6.363 0,-6.363M0,1.611C2.572,1.611 3.814,0.23 3.814,-3.188C3.814,-6.533 2.572,-7.974 0,-7.974C-2.571,-7.974 -3.814,-6.533 -3.814,-3.188C-3.814,0.157 -2.523,1.611 0,1.611" style="fill:rgb(35,31,32);fill-rule:nonzero;"/>
        </g>
        <g transform="matrix(1,0,0,1,585.53,146.031)">
            <path d="M0,5.827L-3.892,5.827L-3.892,3.586L-0.696,3.586L-0.696,1.989L-3.892,1.989L-3.892,0.002L-0.128,0.002L-0.128,-1.614L-5.835,-1.614L-5.835,7.441L0,7.441L0,5.827Z" style="fill:rgb(35,31,32);fill-rule:nonzero;"/>
        </g>
        <g transform="matrix(1,0,0,1,557.194,163.744)">
            <path d="M0,-5.592L1.801,-5.592L1.801,1.574L3.7,1.574L3.7,-5.592L5.5,-5.592L5.5,-7.166L0,-7.166L0,-5.592Z" style="fill:rgb(35,31,32);fill-rule:nonzero;"/>
        </g>
        <g transform="matrix(1,0,0,1,0,-657.102)">
            <rect x="540.35" y="813.682" width="1.916" height="8.738" style="fill:rgb(35,31,32);"/>
        </g>
        <g transform="matrix(1,0,0,1,577.456,159.774)">
            <path d="M0,2.504C0,3.518 -0.347,4.078 -1.292,4.078C-2.229,4.078 -2.598,3.506 -2.598,2.504L-2.598,-3.194L-4.496,-3.194L-4.496,2.575C-4.496,4.671 -3.419,5.698 -1.295,5.698C0.801,5.698 1.882,4.671 1.882,2.575L1.882,-3.194L0,-3.194L0,2.504Z" style="fill:rgb(35,31,32);fill-rule:nonzero;"/>
        </g>
        <g transform="matrix(1,0,0,1,553.528,163.002)">
            <path d="M0,-4.093C0,-4.546 0.231,-4.993 1.185,-4.993C1.78,-4.993 2.308,-4.835 2.838,-4.604L3.045,-6.131C2.44,-6.41 1.812,-6.562 1.021,-6.562C-0.995,-6.562 -1.867,-5.397 -1.867,-3.917C-1.867,-1.106 1.608,-1.645 1.608,-0.083C1.608,0.517 1.231,0.922 0.437,0.922C-0.345,0.922 -1.007,0.657 -1.655,0.291L-1.9,1.851C-1.226,2.246 -0.39,2.469 0.519,2.469C2.407,2.469 3.476,1.42 3.476,-0.292C3.476,-3.196 0,-2.743 0,-4.093" style="fill:rgb(35,31,32);fill-rule:nonzero;"/>
        </g>
        <g transform="matrix(1,0,0,1,548.597,160.215)">
            <path d="M0,1.467L-2.688,-3.636L-4.422,-3.636L-4.422,5.103L-2.688,5.103L-2.688,0.003L0,5.103L1.733,5.103L1.733,-3.636L0,-3.636L0,1.467Z" style="fill:rgb(35,31,32);fill-rule:nonzero;"/>
        </g>
        <g transform="matrix(1,0,0,1,580.223,165.318)">
            <path d="M0,-8.739L0,-7.165L1.801,-7.165L1.801,0L3.699,0L3.699,-7.165L5.501,-7.165L5.501,-8.739L0,-8.739Z" style="fill:rgb(35,31,32);fill-rule:nonzero;"/>
        </g>
        <g transform="matrix(1,0,0,1,0,-657.102)">
            <rect x="563.666" y="813.682" width="1.916" height="8.738" style="fill:rgb(35,31,32);"/>
        </g>
        <g transform="matrix(1,0,0,1,566.555,163.744)">
            <path d="M0,-5.592L1.8,-5.592L1.8,1.574L3.697,1.574L3.697,-5.592L5.5,-5.592L5.5,-7.166L0,-7.166L0,-5.592Z" style="fill:rgb(35,31,32);fill-rule:nonzero;"/>
        </g>
    </g>
</svg>
