<?xml version="1.0" encoding="UTF-8" standalone="no"?>
<!DOCTYPE svg PUBLIC "-//W3C//DTD SVG 1.1//EN" "http://www.w3.org/Graphics/SVG/1.1/DTD/svg11.dtd">
<svg width="100%" height="100%" viewBox="0 0 656 635" version="1.1" xmlns="http://www.w3.org/2000/svg" xmlns:xlink="http://www.w3.org/1999/xlink" xml:space="preserve" xmlns:serif="http://www.serif.com/" style="fill-rule:evenodd;clip-rule:evenodd;stroke-linejoin:round;stroke-miterlimit:2;">
    <g id="Artboard1" transform="matrix(0.495834,0,0,0.354423,0,0)">
        <rect x="0" y="0" width="1322.03" height="1791.23" style="fill:none;"/>
        <clipPath id="_clip1">
            <rect x="0" y="0" width="1322.03" height="1791.23"/>
        </clipPath>
        <g clip-path="url(#_clip1)">
            <g transform="matrix(2.0168,0,0,2.82149,-594.399,3465.04)">
                <path d="M0,-686.202C23.297,-686.202 44.921,-684.9 64.215,-682.617C170.497,-669.871 257.647,-629.522 323.273,-562.699C406.651,-478.048 455.838,-349.068 454.788,-217.707C454.165,-140.619 436.905,-69.032 404.945,-7.98C417.906,-13.556 431.228,-18.614 444.878,-23.133C608.549,-76.719 883.03,-220.924 883.03,-584.85C883.03,-696.811 853.203,-794.823 794.402,-876.208C636.375,-1094.87 318.155,-1143.5 142.441,-1122.72C14.864,-1107.52 -88.299,-1060.69 -164.196,-983.552C-255.547,-890.551 -307.654,-750.642 -304.471,-614.419C-202.489,-667.366 -89.021,-686.202 0,-686.202M199.437,161.028C179.717,165.842 153.794,171.244 130.727,173.135L130.727,286.103M130.071,563.143L63.526,553.344L63.526,73.994L107.462,73.994C130.628,71.366 205.212,57.811 216.139,54.446C245.08,44.549 272.25,27.506 296.761,3.857C354.643,-51.939 386.898,-131.066 387.587,-218.91C388.342,-316.406 350.213,-413.828 285.506,-479.497C230.413,-535.612 152.056,-571.172 58.867,-582.346C-36.652,-593.717 -193.137,-578.589 -319.171,-498.234L-356.48,-474.462L-365.143,-533.745C-393.559,-727.73 -329.475,-936.94 -201.964,-1066.76C-116.289,-1153.81 -2.231,-1206.39 137.125,-1223.02C361.5,-1249.35 677.128,-1175.38 840.012,-950.079C913.152,-848.875 950.231,-726.011 950.231,-584.85C950.231,-150.467 642.642,15.079 459.316,75.124C275.793,135.807 165.017,300.027 130.071,563.143" style="fill:rgb(8,130,105);fill-rule:nonzero;"/>
            </g>
        </g>
    </g>
</svg>
