<?xml version="1.0" encoding="UTF-8" standalone="no"?><!DOCTYPE svg PUBLIC "-//W3C//DTD SVG 1.1//EN" "http://www.w3.org/Graphics/SVG/1.1/DTD/svg11.dtd"><svg width="100%" height="100%" viewBox="0 0 31 30" version="1.1" xmlns="http://www.w3.org/2000/svg" xmlns:xlink="http://www.w3.org/1999/xlink" xml:space="preserve" xmlns:serif="http://www.serif.com/" style="fill-rule:evenodd;clip-rule:evenodd;stroke-linejoin:round;stroke-miterlimit:2;"><path d="M30.064,25.747c-0.21,0.661 -0.697,1.108 -1.194,1.552c-0.532,0.477 -1.051,0.968 -1.579,1.448c-0.78,0.706 -1.722,1.017 -2.748,1.105c-1.839,0.161 -3.569,-0.312 -5.25,-0.978c-3.359,-1.332 -6.27,-3.373 -8.958,-5.754c-2.418,-2.14 -4.61,-4.489 -6.45,-7.152c-1.424,-2.058 -2.628,-4.231 -3.35,-6.64c-0.441,-1.473 -0.703,-2.967 -0.412,-4.508c0.177,-0.937 0.577,-1.756 1.26,-2.431c0.571,-0.564 1.134,-1.137 1.702,-1.701c0.921,-0.914 1.937,-0.92 2.856,-0.005c2.025,2.016 4.046,4.035 6.063,6.059c0.93,0.934 0.927,1.945 -0.001,2.878c-0.806,0.813 -1.611,1.628 -2.429,2.427c-0.84,0.821 -1.077,1.805 -0.846,2.927c0.237,1.158 0.804,2.155 1.541,3.057c1.041,1.275 2.26,2.331 3.811,2.944c0.978,0.387 1.985,0.567 2.979,0.072c0.333,-0.165 0.642,-0.411 0.912,-0.672c0.845,-0.816 1.665,-1.657 2.496,-2.485c0.432,-0.431 0.933,-0.746 1.563,-0.642c0.335,0.055 0.654,0.223 0.965,0.376c0.151,0.075 0.268,0.225 0.391,0.348c1.869,1.868 3.734,3.741 5.607,5.604c0.437,0.434 0.87,0.863 1.071,1.466l0,0.705Z" style="fill:#f1585c;fill-rule:nonzero;"/></svg>